<svg width="46" height="45" viewBox="0 0 46 45" fill="none" xmlns="http://www.w3.org/2000/svg">
<g filter="url(#filter0_d_358_4200)">
<g filter="url(#filter1_d_358_4200)">
<path d="M27.1486 38.9159C26.6504 37.1761 25.1557 35.8456 23.362 35.8456C21.5683 35.8456 20.0736 37.1761 19.5754 38.9159H14.3937C13.8954 37.1761 12.4007 35.8456 10.6071 35.8456C8.71375 35.8456 7.21902 37.1761 6.82043 38.9159H4.72782C3.63169 38.9159 2.73486 37.9948 2.73486 36.869V35.7433C4.42887 35.2316 5.62465 33.6964 5.62465 31.7519C5.62465 29.8074 4.42887 28.1699 2.73486 27.7605V23.5389C4.42887 23.0272 5.62465 21.492 5.62465 19.5475C5.62465 17.603 4.42887 15.9655 2.73486 15.5561V11.1554C4.42887 10.6437 5.62465 9.10852 5.62465 7.164C5.62465 5.21949 4.42887 3.582 2.73486 3.17263V2.04686C2.73486 0.921086 3.63169 0 4.72782 0H6.82043C7.31868 1.73983 8.81339 3.07029 10.6071 3.07029C12.5004 3.07029 13.9951 1.73983 14.3937 0H19.5754C20.0736 1.73983 21.5683 3.07029 23.362 3.07029C25.2553 3.07029 26.75 1.73983 27.1486 0H32.3303C32.8286 1.73983 34.3233 3.07029 36.117 3.07029C38.0103 3.07029 39.505 1.73983 39.9036 0H40.9997C42.0958 0 42.9927 0.921086 42.9927 2.04686V3.17263C41.2987 3.68435 40.1029 5.21949 40.1029 7.164C40.1029 9.10852 41.2987 10.746 42.9927 11.1554V15.5561C41.2987 16.0678 40.1029 17.603 40.1029 19.5475C40.1029 21.492 41.2987 23.1295 42.9927 23.5389V27.7605C41.2987 28.2722 40.1029 29.8074 40.1029 31.7519C40.1029 33.6964 41.2987 35.3339 42.9927 35.7433V36.869C42.9927 37.9948 42.0958 38.9159 40.9997 38.9159H39.9036C39.4053 37.1761 37.9106 35.8456 36.117 35.8456C34.2236 35.8456 32.7289 37.1761 32.3303 38.9159H27.1486Z" fill="#ECE4D0"/>
<g filter="url(#filter2_i_358_4200)">
<rect x="9.06616" y="5.48828" width="27.8897" height="27.8913" rx="1.99569" fill="#187A69"/>
</g>
<rect x="8.31778" y="4.7399" width="29.3865" height="29.3881" rx="2.74407" stroke="#F1F1F1" stroke-width="1.49676"/>
<rect x="11.3115" y="7.73384" width="23.4493" height="23.4493" rx="1.74623" stroke="#F1F1F1" stroke-width="0.498922"/>
<g clip-path="url(#clip0_358_4200)">
<path d="M16.3005 17.4618L21.0403 16.9635L22.7865 12.7227L24.5327 16.9635L28.7736 17.4624L29.2725 17.7119L29.023 18.4603L26.279 20.4559L27.0273 25.4446L25.5306 24.9462L22.7865 22.95L21.7887 23.9478L18.5457 25.4446L19.5435 20.7048L16.3005 18.2102V17.4618Z" fill="#BFF426"/>
<path fill-rule="evenodd" clip-rule="evenodd" d="M21.6122 13.1218L20.5866 16.28C20.5537 16.3813 20.4895 16.4696 20.4034 16.5323C20.3172 16.595 20.2135 16.6289 20.1069 16.629H16.7867C16.5259 16.6288 16.2718 16.7111 16.0608 16.8643C15.8497 17.0174 15.6926 17.2335 15.612 17.4815C15.5314 17.7295 15.5314 17.9966 15.612 18.2446C15.6926 18.4925 15.8497 18.7086 16.0607 18.8618L18.7477 20.8129C18.8339 20.8755 18.898 20.9638 18.9309 21.0651C18.9637 21.1664 18.9637 21.2755 18.9307 21.3768L17.9041 24.535C17.8236 24.7829 17.8236 25.05 17.9042 25.2979C17.9848 25.5458 18.1417 25.7618 18.3526 25.9151C18.5635 26.0683 18.8175 26.1508 19.0782 26.1508C19.3389 26.1508 19.5928 26.0683 19.8038 25.9152L22.4903 23.9636C22.5764 23.9011 22.6801 23.8675 22.7865 23.8675C22.8928 23.8675 22.9965 23.9011 23.0826 23.9636C23.0826 23.9636 23.0826 23.9636 23.0826 23.9636L25.7692 25.9152C25.9801 26.0683 26.2341 26.1508 26.4947 26.1508C26.7554 26.1508 27.0094 26.0683 27.2203 25.9151C27.4312 25.7618 27.5882 25.5458 27.6688 25.2979C27.7493 25.05 27.7494 24.7829 27.6689 24.535L26.6427 21.3773C26.6097 21.276 26.6097 21.1669 26.6426 21.0656C26.6754 20.9643 26.7396 20.876 26.8257 20.8134L29.5122 18.8618C29.7233 18.7086 29.8804 18.4925 29.961 18.2446C30.0416 17.9966 30.0416 17.7295 29.9609 17.4815C29.8803 17.2335 29.7232 17.0174 29.5122 16.8643C29.3011 16.7111 29.047 16.6288 28.7863 16.629H25.466C25.3595 16.6289 25.2557 16.595 25.1695 16.5323C25.0834 16.4696 25.0193 16.3813 24.9863 16.28L23.9607 13.1218C23.8799 12.874 23.7228 12.6581 23.5119 12.505C23.301 12.352 23.0471 12.2695 22.7865 12.2695C22.5259 12.2695 22.2719 12.352 22.061 12.505C21.8501 12.6581 21.693 12.874 21.6122 13.1218ZM22.5596 13.4299C22.5755 13.383 22.6056 13.3422 22.6459 13.3133C22.6861 13.2844 22.7344 13.2689 22.784 13.2689C22.8335 13.2689 22.8818 13.2844 22.9221 13.3133C22.9623 13.3422 22.9925 13.383 23.0083 13.4299L24.0345 16.5881C24.1325 16.8897 24.3234 17.1525 24.58 17.3389C24.8365 17.5253 25.1454 17.6257 25.4625 17.6257H28.7828C28.8329 17.6255 28.8818 17.6413 28.9225 17.6707C28.9631 17.7 28.9934 17.7416 29.0089 17.7892C29.0244 17.8369 29.0244 17.8883 29.0088 17.936C28.9933 17.9837 28.963 18.0252 28.9224 18.0545L26.2364 20.0061C25.9798 20.1925 25.7888 20.4553 25.6908 20.7569C25.5928 21.0585 25.5928 21.3833 25.6909 21.6849L26.717 24.8426C26.7326 24.8903 26.7326 24.9417 26.7171 24.9894C26.7016 25.0372 26.6713 25.0787 26.6308 25.1082C26.5902 25.1377 26.5413 25.1535 26.4911 25.1534C26.4409 25.1534 26.3921 25.1375 26.3515 25.1079L23.669 23.1563C23.4125 22.9699 23.1035 22.8695 22.7865 22.8695C22.4694 22.8695 22.1604 22.9699 21.9039 23.1563L19.2179 25.1079C19.1774 25.1375 19.1285 25.1534 19.0783 25.1534C19.0282 25.1535 18.9793 25.1377 18.9387 25.1082C18.8981 25.0787 18.8679 25.0372 18.8524 24.9894C18.8369 24.9417 18.8369 24.8903 18.8524 24.8426L19.8786 21.6849C19.9766 21.3833 19.9766 21.0585 19.8786 20.7569C19.7806 20.4553 19.5897 20.1925 19.3331 20.0061L16.6471 18.053C16.6064 18.0237 16.5761 17.9822 16.5606 17.9345C16.545 17.8868 16.545 17.8354 16.5606 17.7877C16.5761 17.7401 16.6063 17.6985 16.647 17.6692C16.6876 17.6398 16.7365 17.624 16.7867 17.6242H20.1069C20.424 17.6242 20.7329 17.5238 20.9895 17.3374C21.246 17.151 21.4369 16.8882 21.5349 16.5866L22.5611 13.4284L22.5596 13.4299Z" fill="#BFF426"/>
</g>
</g>
</g>
<defs>
<filter id="filter0_d_358_4200" x="-0.000112057" y="0" width="45.7278" height="44.384" filterUnits="userSpaceOnUse" color-interpolation-filters="sRGB">
<feFlood flood-opacity="0" result="BackgroundImageFix"/>
<feColorMatrix in="SourceAlpha" type="matrix" values="0 0 0 0 0 0 0 0 0 0 0 0 0 0 0 0 0 0 127 0" result="hardAlpha"/>
<feOffset dy="2.73498"/>
<feGaussianBlur stdDeviation="1.36749"/>
<feComposite in2="hardAlpha" operator="out"/>
<feColorMatrix type="matrix" values="0 0 0 0 0 0 0 0 0 0 0 0 0 0 0 0 0 0 0.25 0"/>
<feBlend mode="normal" in2="BackgroundImageFix" result="effect1_dropShadow_358_4200"/>
<feBlend mode="normal" in="SourceGraphic" in2="effect1_dropShadow_358_4200" result="shape"/>
</filter>
<filter id="filter1_d_358_4200" x="0.739177" y="0" width="44.2492" height="42.9054" filterUnits="userSpaceOnUse" color-interpolation-filters="sRGB">
<feFlood flood-opacity="0" result="BackgroundImageFix"/>
<feColorMatrix in="SourceAlpha" type="matrix" values="0 0 0 0 0 0 0 0 0 0 0 0 0 0 0 0 0 0 127 0" result="hardAlpha"/>
<feOffset dy="1.99569"/>
<feGaussianBlur stdDeviation="0.997843"/>
<feComposite in2="hardAlpha" operator="out"/>
<feColorMatrix type="matrix" values="0 0 0 0 0 0 0 0 0 0 0 0 0 0 0 0 0 0 0.25 0"/>
<feBlend mode="normal" in2="BackgroundImageFix" result="effect1_dropShadow_358_4200"/>
<feBlend mode="normal" in="SourceGraphic" in2="effect1_dropShadow_358_4200" result="shape"/>
</filter>
<filter id="filter2_i_358_4200" x="7.56934" y="3.99219" width="30.8833" height="32.7737" filterUnits="userSpaceOnUse" color-interpolation-filters="sRGB">
<feFlood flood-opacity="0" result="BackgroundImageFix"/>
<feBlend mode="normal" in="SourceGraphic" in2="BackgroundImageFix" result="shape"/>
<feColorMatrix in="SourceAlpha" type="matrix" values="0 0 0 0 0 0 0 0 0 0 0 0 0 0 0 0 0 0 127 0" result="hardAlpha"/>
<feOffset dy="1.89094"/>
<feGaussianBlur stdDeviation="0.945469"/>
<feComposite in2="hardAlpha" operator="arithmetic" k2="-1" k3="1"/>
<feColorMatrix type="matrix" values="0 0 0 0 0 0 0 0 0 0 0 0 0 0 0 0 0 0 0.25 0"/>
<feBlend mode="normal" in2="shape" result="effect1_innerShadow_358_4200"/>
</filter>
<clipPath id="clip0_358_4200">
<rect width="14.4687" height="14.4687" fill="white" transform="translate(15.552 11.9766)"/>
</clipPath>
</defs>
</svg>
